<svg width="600" height="420" viewBox="0 0 600 420" fill="none" xmlns="http://www.w3.org/2000/svg">
  <defs>
    <linearGradient id="bgc" x1="0" y1="0" x2="1" y2="1"><stop offset="0%" stop-color="#3d2410"/><stop offset="100%" stop-color="#1b1208"/></linearGradient>
    <radialGradient id="bean" cx="35%" cy="30%" r="75%"><stop offset="0%" stop-color="#8a5a2b"/><stop offset="100%" stop-color="#4a2c12"/></radialGradient>
  </defs>
  <rect width="600" height="420" fill="url(#bgc)"/>
  <circle cx="300" cy="200" r="150" fill="#c9a84c" opacity="0.12"/>
  <g>
    <g transform="translate(250 180) rotate(-20)"><ellipse cx="0" cy="0" rx="30" ry="20" fill="url(#bean)"/><path d="M0 -18 Q6 0 0 18" stroke="#2a1709" stroke-width="3" fill="none"/></g>
    <g transform="translate(320 175) rotate(15)"><ellipse cx="0" cy="0" rx="30" ry="20" fill="url(#bean)"/><path d="M0 -18 Q6 0 0 18" stroke="#2a1709" stroke-width="3" fill="none"/></g>
    <g transform="translate(285 225) rotate(35)"><ellipse cx="0" cy="0" rx="30" ry="20" fill="url(#bean)"/><path d="M0 -18 Q6 0 0 18" stroke="#2a1709" stroke-width="3" fill="none"/></g>
    <g transform="translate(355 230) rotate(-10)"><ellipse cx="0" cy="0" rx="30" ry="20" fill="url(#bean)"/><path d="M0 -18 Q6 0 0 18" stroke="#2a1709" stroke-width="3" fill="none"/></g>
    <g transform="translate(225 240) rotate(25)"><ellipse cx="0" cy="0" rx="30" ry="20" fill="url(#bean)"/><path d="M0 -18 Q6 0 0 18" stroke="#2a1709" stroke-width="3" fill="none"/></g>
  </g>
</svg>
